<?xml version="1.0" standalone="no"?>
<!DOCTYPE svg PUBLIC "-//W3C//DTD SVG 20010904//EN"
 "http://www.w3.org/TR/2001/REC-SVG-20010904/DTD/svg10.dtd">
<svg version="1.0" xmlns="http://www.w3.org/2000/svg"
 width="1080.000000pt" height="1080.000000pt" viewBox="0 0 1080.000000 1080.000000"
 preserveAspectRatio="xMidYMid meet">
<metadata>
Created by potrace 1.14, written by Peter Selinger 2001-2017
</metadata>
<g transform="translate(0.000000,1080.000000) scale(0.100000,-0.100000)"
fill="#000000" stroke="none">
<path d="M0 5400 l0 -5400 5400 0 5400 0 0 5400 0 5400 -5400 0 -5400 0 0
-5400z m3592 2788 c102 -238 519 -1220 929 -2181 709 -1667 744 -1747 757
-1720 7 15 410 996 896 2178 l884 2150 1351 3 1351 2 0 -85 0 -85 -132 0
c-397 0 -611 -86 -720 -287 -37 -68 -55 -145 -68 -288 -13 -161 -14 -4985 0
-5145 20 -234 54 -315 172 -410 145 -117 310 -159 621 -160 l127 0 0 -85 0
-85 -1730 0 -1730 0 0 85 0 85 128 0 c413 1 626 89 730 304 17 33 35 85 41
114 29 141 32 391 29 2885 l-3 2538 -964 -2293 c-530 -1261 -1099 -2614 -1264
-3005 l-300 -713 -61 0 -62 0 -1284 2986 -1285 2987 -3 -2414 c-2 -1480 1
-2491 7 -2614 8 -170 14 -211 35 -273 36 -106 80 -176 171 -267 148 -149 319
-210 648 -231 l107 -6 0 -84 0 -84 -1135 0 -1135 0 0 85 0 85 73 0 c271 1 540
101 667 248 52 60 122 202 157 317 l27 90 4 2261 c4 2724 0 2941 -68 3074 -31
61 -102 133 -176 180 -133 84 -243 110 -501 117 l-183 6 0 83 0 84 1354 0
1354 0 184 -432z"/>
</g>
</svg>
